<svg xmlns="http://www.w3.org/2000/svg" xmlns:xlink="http://www.w3.org/1999/xlink" width="73.09" height="73.059" viewBox="0 0 73.09 73.059">
  <defs>
    <clipPath id="clip-path">
      <rect id="Rectangle_115" data-name="Rectangle 115" width="73.09" height="73.059" fill="#37a76f"/>
    </clipPath>
  </defs>
  <g id="about-how-3" transform="translate(0)">
    <g id="Group_88" data-name="Group 88" transform="translate(0)" clip-path="url(#clip-path)">
      <path id="Path_319" data-name="Path 319" d="M37.95,0c.878.189,1.765.343,2.631.574a14.418,14.418,0,0,1,4.955,2.439c.754.565.943,1.184.538,1.738s-1.049.544-1.809-.019A12.872,12.872,0,0,0,24.057,11.82a13.129,13.129,0,0,0-.4,3.173,2.213,2.213,0,0,1-2.375,2.43,8,8,0,0,0-7.811,7.586,8.141,8.141,0,0,0,6.742,8.313,7.424,7.424,0,0,0,5.459-1.113,2.564,2.564,0,0,1,2.285-.312,30.923,30.923,0,0,0,17.158,0,2.534,2.534,0,0,1,2.223.283,7.738,7.738,0,0,0,9.12-.469,7.964,7.964,0,0,0-4.414-14.273c-1.963-.121-2.614-.786-2.657-2.739A12.673,12.673,0,0,0,47.6,8.466c-.072-.123-.151-.243-.216-.369a1.069,1.069,0,0,1,.381-1.538,1.05,1.05,0,0,1,1.458.465,14.634,14.634,0,0,1,2.142,5.765,11.542,11.542,0,0,1,.143,1.774c-.005.526.128.71.7.751a9.972,9.972,0,0,1,9.3,8.141,9.656,9.656,0,0,1-4.163,10.208,9.523,9.523,0,0,1-10.743.572,1.6,1.6,0,0,0-1.331-.158,29.438,29.438,0,0,1-7.022,1.1c-.527.023-.7.184-.67.709a23.085,23.085,0,0,1,0,2.5c-.034.588.144.765.747.76,3.424-.029,6.847-.014,10.271-.014q6.7,0,13.41,0c1.332,0,1.62.295,1.62,1.644,0,1.878.039,3.758-.02,5.634-.023.72.209.926.87.822a2.641,2.641,0,0,1,.641,0,1.087,1.087,0,0,1,1.044,1.061,1.073,1.073,0,0,1-1.043,1.06c-.521.032-1.046.011-1.569.011-2.758,0-5.516.013-8.274-.01-.58,0-.806.164-.791.77.034,1.426.028,2.853,0,4.279-.009.524.171.713.7.712q7.525-.019,15.05,0c.482,0,.682-.16.674-.663q-.033-2.211,0-4.422c.007-.493-.177-.668-.669-.673-1.115-.012-1.607-.369-1.593-1.079s.537-1.056,1.63-1.051a2.523,2.523,0,0,1,2.764,2.732,43.1,43.1,0,0,1-.035,4.49,18.2,18.2,0,0,0,.006,3.5c.128,1.439.024,2.9.034,4.348a3.167,3.167,0,0,1-.3,1.522c-.063.123-.17.243-.079.4.58.969.333,2.039.364,3.071s.015,2.092,0,3.138a2.484,2.484,0,0,1-2.581,2.626q-7.775.017-15.55,0a2.469,2.469,0,0,1-2.551-2.581,45.529,45.529,0,0,1,.036-4.775,16.392,16.392,0,0,0,0-3.21,24.083,24.083,0,0,1,0-4.7,16.248,16.248,0,0,0,0-3.21,46.914,46.914,0,0,1-.035-4.7,2.491,2.491,0,0,1,2.643-2.634c1.95-.01,3.9-.017,5.849.008.476.006.661-.088.649-.613-.036-1.568-.04-3.139,0-4.707.015-.563-.185-.658-.692-.657q-11.27.022-22.54,0c-.531,0-.7.147-.69.683.031,1.545.036,3.091,0,4.636-.014.554.176.669.691.661,1.949-.029,3.9-.015,5.849-.01a2.5,2.5,0,0,1,2.741,2.68,41.948,41.948,0,0,1-.033,4.633,16.772,16.772,0,0,0,0,3.3,23.926,23.926,0,0,1,0,4.629,16.271,16.271,0,0,0,0,3.228,41.755,41.755,0,0,1,.033,4.7,2.484,2.484,0,0,1-2.7,2.646q-7.632.008-15.265,0a2.483,2.483,0,0,1-2.707-2.64,42.678,42.678,0,0,1,.032-4.7,16.315,16.315,0,0,0,0-3.227,24.408,24.408,0,0,1,0-4.629,16.786,16.786,0,0,0,0-3.3,40.405,40.405,0,0,1-.035-4.632,2.494,2.494,0,0,1,2.731-2.689c1.95,0,3.9-.016,5.849.009.5.006.717-.078.7-.649-.04-1.568-.026-3.138-.006-4.707.006-.453-.126-.621-.6-.62q-11.377.019-22.754,0c-.447,0-.56.148-.555.573.021,1.616.025,3.234,0,4.85-.008.451.135.556.565.552,1.949-.022,3.9-.014,5.849-.008a2.507,2.507,0,0,1,2.727,2.7c.007,1.45-.005,2.9,0,4.351a3.3,3.3,0,0,1-.306,1.662c-.068.124-.15.243-.058.395a4.868,4.868,0,0,1,.356,2.646,25.708,25.708,0,0,1-.026,3.42,15.283,15.283,0,0,0-.006,3.354,45.891,45.891,0,0,1,.034,4.633,2.5,2.5,0,0,1-2.618,2.662c-1.332.012-2.663.01-3.994,0-.785-.006-1.243-.408-1.248-1.06s.452-1.067,1.232-1.074c1.26-.011,2.521-.02,3.78,0,.516.01.728-.159.719-.7-.024-1.474-.019-2.948,0-4.422.005-.457-.165-.638-.625-.637q-7.6.012-15.193,0c-.415,0-.6.152-.6.587.013,1.522.017,3.043,0,4.565-.007.556.311.6.739.6,1.973-.009,3.947,0,5.92-.007a1.19,1.19,0,0,1,1.114.5,1.043,1.043,0,0,1-.892,1.631c-2.234.031-4.47.039-6.7-.006A2.679,2.679,0,0,1,0,71.193V64.915A1.243,1.243,0,0,0,0,63.2V57.068a1.243,1.243,0,0,0,0-1.712V49.079A3.041,3.041,0,0,1,3.309,47.2c1.85.088,3.707.007,5.561.031.441.006.562-.12.557-.559-.023-1.973-.01-3.946-.01-5.918,0-1.339.289-1.628,1.633-1.629H25.668c3.019,0,6.037-.017,9.056.014.611.006.773-.185.741-.766a23.121,23.121,0,0,1,0-2.494c.028-.531-.153-.682-.674-.705A29.81,29.81,0,0,1,27.7,34.06a1.358,1.358,0,0,0-1.2.142,9.578,9.578,0,0,1-6.374,1.28A10.366,10.366,0,0,1,11.31,25.154a10.131,10.131,0,0,1,9.517-9.843c.556-.04.7-.192.712-.736A14.961,14.961,0,0,1,32.534.555C33.375.323,34.242.183,35.1,0ZM10.306,63.025c2.5,0,4.993-.009,7.489.007.536,0,.774-.161.762-.738-.03-1.45-.026-2.9,0-4.35.01-.541-.219-.7-.723-.7q-7.489.013-14.978,0c-.572,0-.736.233-.725.773.027,1.378.046,2.759-.006,4.136-.027.713.241.9.907.888,2.425-.029,4.85-.011,7.275-.012m52.376,0c2.473,0,4.945-.014,7.418.01.62.006.836-.2.82-.828-.037-1.4-.03-2.805,0-4.208.011-.554-.18-.761-.739-.76q-7.489.019-14.978,0c-.517,0-.718.187-.709.716.025,1.378.007,2.758.009,4.137,0,.911.017.93.907.931q3.637,0,7.275,0m-26.183,0c2.471,0,4.942-.015,7.413.011.622.006.84-.208.825-.827q-.049-2.066,0-4.134c.014-.6-.175-.842-.811-.84q-7.412.029-14.825,0c-.589,0-.8.205-.788.789.027,1.377.04,2.757,0,4.133-.023.711.263.885.922.877,2.423-.029,4.847-.012,7.27-.012M10.327,49.364c-2.472,0-4.944.015-7.416-.011-.59-.006-.8.184-.782.779.034,1.4.036,2.805,0,4.207-.016.6.2.78.78.778q7.451-.025,14.9,0c.55,0,.759-.17.747-.738-.031-1.4-.036-2.805,0-4.207.017-.625-.191-.826-.817-.818-2.472.029-4.944.012-7.416.012m52.3,21.544c2.5,0,4.991-.013,7.487.01.57.005.816-.145.8-.76-.035-1.425-.027-2.852,0-4.278.009-.513-.15-.723-.688-.722q-7.523.019-15.045,0c-.536,0-.7.2-.691.719.025,1.4.041,2.806-.006,4.206-.023.683.234.845.872.837,2.424-.031,4.848-.012,7.273-.012M36.517,49.364c-2.47,0-4.94.015-7.409-.011-.584-.006-.808.177-.8.771q.042,2.1,0,4.2c-.011.576.17.793.773.79q7.445-.029,14.89,0c.621,0,.771-.244.76-.8-.025-1.353-.034-2.708,0-4.06.018-.663-.169-.919-.883-.907-2.445.041-4.892.016-7.338.016m.007,21.544c2.446,0,4.892-.02,7.338.014.647.009.893-.177.875-.841-.036-1.377-.029-2.755,0-4.132.011-.569-.157-.8-.768-.8q-7.445.03-14.89,0c-.614,0-.776.231-.766.8.026,1.377.034,2.755,0,4.132-.018.665.232.848.877.839,2.446-.033,4.892-.013,7.338-.013" fill="#37a76f"/>
      <path id="Path_320" data-name="Path 320" d="M155.052,50.766c.017-.34.01-.555.041-.764a1.006,1.006,0,0,1,1.052-.958.946.946,0,0,1,1.049.947c.013,1.258-.041,2.52-.135,3.775a.95.95,0,0,1-1,.852c-1.163.057-2.328.091-3.492.095a.979.979,0,0,1-1.044-.958,1.019,1.019,0,0,1,.94-1.132c.366-.058.74-.069,1.25-.112a7.414,7.414,0,0,0-4.278-1.968,8,8,0,0,0-9.089,7.6,4.681,4.681,0,0,1-.054.5,1.009,1.009,0,0,1-1.138.929.979.979,0,0,1-.957-1.044,9.472,9.472,0,0,1,.7-3.757,10.2,10.2,0,0,1,15.547-4.426c.167.123.339.241.605.43" transform="translate(-111.856 -39.118)" fill="#37a76f"/>
      <path id="Path_321" data-name="Path 321" d="M148.847,103.353a7.671,7.671,0,0,0,4.226,1.963,8.026,8.026,0,0,0,9.144-7.534c.009-.118.012-.237.024-.355.08-.753.471-1.152,1.106-1.132.655.02,1.032.483,1.019,1.277a9.812,9.812,0,0,1-.431,2.734,10.2,10.2,0,0,1-15.827,5.22c-.167-.123-.339-.24-.518-.366-.181.244-.08.488-.119.71a1.022,1.022,0,0,1-1.063.952.95.95,0,0,1-1.044-.954c-.01-1.258.038-2.519.137-3.773.045-.572.519-.835,1.069-.858,1.116-.047,2.232-.084,3.349-.091a1.032,1.032,0,0,1,1.12.964,1.057,1.057,0,0,1-1.016,1.145c-.342.047-.689.059-1.177.1" transform="translate(-117.657 -77.941)" fill="#37a76f"/>
      <path id="Path_322" data-name="Path 322" d="M296.69,267.231a8.488,8.488,0,0,1-.043.848.969.969,0,0,1-1.069.912.937.937,0,0,1-1-.9,9.83,9.83,0,0,1-.013-1.627,1.049,1.049,0,0,1,2.093-.008,7.226,7.226,0,0,1,0,.779h.028" transform="translate(-238.399 -214.875)" fill="#37a76f"/>
      <path id="Path_323" data-name="Path 323" d="M22,348.839a8.639,8.639,0,0,1-.051.875.961.961,0,0,1-1.021.885.927.927,0,0,1-1.033-.862,9.177,9.177,0,0,1-.005-1.766.93.93,0,0,1,1.015-.885.957.957,0,0,1,1.041.861,7.5,7.5,0,0,1,.055.892" transform="translate(-16.067 -280.932)" fill="#37a76f"/>
      <path id="Path_324" data-name="Path 324" d="M19.75,307.995a7.94,7.94,0,0,1,.063-.918.962.962,0,0,1,.987-.849.94.94,0,0,1,1.052.848,8.809,8.809,0,0,1,.027,1.7,1.047,1.047,0,0,1-2.092,0,7.549,7.549,0,0,1,0-.78H19.75" transform="translate(-15.986 -247.86)" fill="#37a76f"/>
      <path id="Path_325" data-name="Path 325" d="M296.588,308.017a7.148,7.148,0,0,1-.074.924.964.964,0,0,1-1.01.822.948.948,0,0,1-1.018-.81,5.423,5.423,0,0,1,0-1.908.948.948,0,0,1,1.008-.821.96.96,0,0,1,1.02.809,7.082,7.082,0,0,1,.077.983" transform="translate(-238.288 -247.859)" fill="#37a76f"/>
      <path id="Path_326" data-name="Path 326" d="M157.187,307.906c0-.237-.02-.476,0-.711a1.049,1.049,0,0,1,1.084-1,1.008,1.008,0,0,1,1.029.98,9.864,9.864,0,0,1,0,1.564,1.053,1.053,0,0,1-1.081,1.008,1.071,1.071,0,0,1-1.038-1.055c-.02-.259,0-.521,0-.783" transform="translate(-127.221 -247.831)" fill="#37a76f"/>
      <path id="Path_327" data-name="Path 327" d="M19.768,267.25a8.267,8.267,0,0,1,.05-.874.959.959,0,0,1,1.025-.881.928.928,0,0,1,1.031.865,9.128,9.128,0,0,1,0,1.766.93.93,0,0,1-1.017.882.957.957,0,0,1-1.037-.865,7.709,7.709,0,0,1-.053-.893" transform="translate(-16 -214.892)" fill="#37a76f"/>
      <path id="Path_328" data-name="Path 328" d="M294.475,348.764a6.926,6.926,0,0,1,.06-.846.95.95,0,0,1,.993-.834.931.931,0,0,1,1.05.843,9.24,9.24,0,0,1,.024,1.7.968.968,0,0,1-1.012.976,1,1,0,0,1-1.079-.985,7.947,7.947,0,0,1-.005-.85h-.031" transform="translate(-238.348 -280.929)" fill="#37a76f"/>
      <path id="Path_329" data-name="Path 329" d="M159.275,267.236a5.876,5.876,0,0,1-.006.78,1.059,1.059,0,0,1-2.112-.029,11.946,11.946,0,0,1,0-1.49,1.033,1.033,0,0,1,1.039-1.039,1.052,1.052,0,0,1,1.085,1.068c.016.236,0,.473,0,.71h-.006" transform="translate(-127.183 -214.862)" fill="#37a76f"/>
      <path id="Path_330" data-name="Path 330" d="M159.261,348.779a5.648,5.648,0,0,1-.007.85.994.994,0,0,1-1.06.935.977.977,0,0,1-1.043-.95,10.059,10.059,0,0,1-.012-1.489,1.044,1.044,0,0,1,1.07-1.083,1.058,1.058,0,0,1,1.059,1.1c.013.212,0,.426,0,.639h-.008" transform="translate(-127.171 -280.897)" fill="#37a76f"/>
    </g>
  </g>
</svg>
