<svg xmlns="http://www.w3.org/2000/svg" xmlns:xlink="http://www.w3.org/1999/xlink" width="85.486" height="95.922" viewBox="0 0 85.486 95.922">
  <defs>
    <clipPath id="clip-path">
      <rect id="Rectangle_117" data-name="Rectangle 117" width="85.486" height="95.922" transform="translate(0 0)" fill="#37a76f"/>
    </clipPath>
    <clipPath id="clip-path-2">
      <rect id="Rectangle_116" data-name="Rectangle 116" width="85.486" height="95.922" fill="#37a76f"/>
    </clipPath>
  </defs>
  <g id="about-vision-1" transform="translate(-24.552 -266.15)">
    <g id="Group_92" data-name="Group 92" transform="translate(24.552 266.15)" clip-path="url(#clip-path)">
      <g id="Group_91" data-name="Group 91" transform="translate(0 0)">
        <g id="Group_90" data-name="Group 90" clip-path="url(#clip-path-2)">
          <path id="Path_331" data-name="Path 331" d="M55.135,362.071c-1.028-.572-1.088-1.45-.882-2.491.939-4.742,1.83-9.492,2.771-14.233.14-.708.107-.906-.716-.753-2.362.439-4.766.593-7.149.885-7,.857-10.745-3.059-12.572-8.341a29.893,29.893,0,0,1-1.527-10.13c.007-.735-.191-.979-.936-.934-1.058.064-2.123.034-3.184.012a6.043,6.043,0,0,1-5.67-3.47,5.943,5.943,0,0,1,.7-6.682c2.293-2.964,4.5-5.983,6.568-9.111a19.95,19.95,0,0,0,3.4-10.817,45.566,45.566,0,0,1,1.589-12.216,20.678,20.678,0,0,1,7.871-11.2,2.684,2.684,0,0,0,.86-1.062,6.428,6.428,0,0,1,6.025-3.881,6.706,6.706,0,0,1,5.289,10.893,1.05,1.05,0,0,0-.105,1.382c1.695,3.09,3.287,6.238,5.05,9.287a7.2,7.2,0,0,1,1.047,4.536c-.078.71.17.919.872.874,1-.062,2-.037,3-.007.475.014.658-.114.649-.623-.029-1.655-.047-3.311.007-4.964.022-.66-.413-.655-.806-.784a7.488,7.488,0,0,1-2.734-12.7,6.781,6.781,0,0,1,2.922-1.61c.483-.121.621-.349.612-.838-.032-1.717-.02-3.435-.009-5.152.007-1.091.59-1.782,1.483-1.8s1.5.665,1.509,1.76c.012,1.749.017,3.5-.006,5.246a.68.68,0,0,0,.568.776,7.465,7.465,0,0,1-.01,14.372.683.683,0,0,0-.557.785q.032,2.436,0,4.871c-.006.457.084.679.61.661,1.092-.037,2.186-.035,3.278,0,.5.016.681-.165.621-.645-.02-.154.018-.315-.006-.468a8.034,8.034,0,0,1,2.368-7.023c1.648-1.78,3-3.831,4.53-5.726a1.047,1.047,0,0,0,.078-1.452,6.717,6.717,0,0,1,8.328-9.665,6.716,6.716,0,0,1-4.752,12.56.942.942,0,0,0-1.3.362q-2.8,3.7-5.69,7.32a2.185,2.185,0,0,0-.563,1.7,3.6,3.6,0,0,1,0,.749c-.135,1.466-.071,2.608,1.7,3.323,1.72.692,2.525,2.442,2.748,4.31.063.526.228.72.733.644a1.879,1.879,0,0,1,.281,0c2.139.006,2.111.007,2.054-2.122-.015-.549-.356-.752-.672-1.031a6.686,6.686,0,0,1-1.858-7.579,6.542,6.542,0,0,1,6.547-4.206,2.38,2.38,0,0,0,2.156-.853c2.159-2.213,4.353-4.391,6.551-6.564a1.5,1.5,0,0,1,2.242-.094,1.527,1.527,0,0,1-.09,2.181c-.146.162-.309.309-.463.464-1.943,1.943-3.877,3.9-5.838,5.821-.4.395-.48.6-.035,1.076a6.7,6.7,0,0,1-4.854,11.381c-.605.007-.75.164-.718.723.041.716.026,1.436,0,2.154a1.5,1.5,0,0,1-1.63,1.641c-1.217.025-2.439.059-3.652-.011-.823-.048-.84.479-.682.927.244.69-.763,1.828.646,2.069a17.178,17.178,0,0,0,2.245.03,1.495,1.495,0,1,1-.032,2.984c-.749.024-1.5.03-2.248,0-.475-.02-.665.113-.649.623q.053,1.638,0,3.278c-.017.52.195.62.657.614,1.655-.022,3.311.017,4.965-.018a1.9,1.9,0,0,1,1.884,1.106c1.322,2.441,2.691,4.856,4,7.3a.951.951,0,0,0,1.172.575,7.456,7.456,0,1,1,1.332,14.8c-.658.012-.763.306-.877.8a46.985,46.985,0,0,0-.29,20.065c.061.306.09.621.178.918a1.925,1.925,0,0,1-.831,2.42Zm2.3-3.056c.215.024.368.055.52.055q17.1,0,34.2.02c.76,0,.713-.337.612-.846a43.118,43.118,0,0,1-.709-5.662,48.973,48.973,0,0,1,1.291-14.866.783.783,0,0,0-.339-1.007c-4.237-2.937-4.717-8.055-1.117-11.753a.608.608,0,0,0,.147-.868q-1.831-3.265-3.616-6.556a.8.8,0,0,0-.829-.442c-1.374.016-2.749.02-4.122,0a.722.722,0,0,0-.815.552,5.838,5.838,0,0,1-4.946,3.9c-.513.072-.679.21-.661.727.038,1.092.013,2.186.011,3.279,0,1.334-.54,2.05-1.521,2.034s-1.472-.714-1.475-2.079c0-.593,0-1.187,0-1.78,0-2.145,0-2.1-2.119-2.152-.79-.018-.907.271-.894.957.039,2.092.022,4.185.011,6.277-.006,1.1-.591,1.775-1.5,1.775s-1.487-.674-1.495-1.775c-.011-1.655,0-3.31,0-4.966,0-2.358,0-2.341-2.379-2.26-.5.017-.643.16-.63.645.03,1.124.012,2.248.009,3.373,0,1.275-.523,1.969-1.476,1.985s-1.514-.688-1.52-1.94c0-1.124-.026-2.249.01-3.372.017-.515-.146-.652-.661-.724a5.89,5.89,0,0,1-5.286-5.243c-.088-.655-.335-.722-.87-.715q-2.529.036-5.059,0a1.5,1.5,0,1,1,.025-2.984c1.218-.021,2.436-.005,3.654-.006,2.235,0,2.208,0,2.206-2.249,0-.638-.213-.769-.8-.763-2.623.028-5.247.017-7.87.01-1.166,0-1.855-.591-1.834-1.53.021-.908.684-1.457,1.806-1.462,2.155-.009,4.31,0,6.465,0,2.253,0,2.231,0,2.23-2.222,0-.6-.14-.808-.771-.792-1.654.044-3.31.023-4.965.011-1.1-.008-1.771-.592-1.766-1.5s.67-1.481,1.78-1.488c1.686-.011,3.373-.014,5.059,0,.444,0,.624-.088.69-.594a5.892,5.892,0,0,1,3.932-5.031c.2-.077.5-.091.493-.352-.048-1.072.29-2.175-.27-3.211-1.794-3.321-3.589-6.641-5.351-9.978a.855.855,0,0,0-1.143-.526,6.527,6.527,0,0,1-7.653-4.032c-.326-.821-.561-.618-1.023-.163a18.261,18.261,0,0,0-4.6,7.612,38.426,38.426,0,0,0-1.54,11.37A23.325,23.325,0,0,1,34.835,308.8c-2.027,3-4.118,5.956-6.372,8.792a3.211,3.211,0,0,0-.529,3.659,3.25,3.25,0,0,0,3.21,1.848c1.592-.016,3.185,0,4.778,0,1.73,0,2.168.454,2.148,2.147-.014,1.217-.046,2.439.031,3.653a22.19,22.19,0,0,0,2.374,9.639,7.3,7.3,0,0,0,7.606,4.006,101.121,101.121,0,0,0,10.48-1.39A1.538,1.538,0,0,1,60.5,343.1c-.31,1.655-.64,3.307-.958,4.961-.7,3.64-1.4,7.28-2.107,10.955m12.174-61.408c-2.467,0-4.934-.012-7.4,0a2.965,2.965,0,0,0-3.131,3.112q-.023,7.354,0,14.708a2.99,2.99,0,0,0,3.183,3.161q7.307.017,14.615,0a2.98,2.98,0,0,0,3.182-3.162q.02-7.307,0-14.614a3.006,3.006,0,0,0-3.233-3.206c-2.4-.01-4.809,0-7.214,0m31.846,32.822a4.467,4.467,0,0,0-4.5-4.517,4.493,4.493,0,1,0,.051,8.986,4.456,4.456,0,0,0,4.445-4.469m-27.4-49.294a4.492,4.492,0,1,0-4.558,4.475,4.508,4.508,0,0,0,4.558-4.475m17.994-5.229a3.745,3.745,0,1,0-3.779,3.708,3.782,3.782,0,0,0,3.779-3.708m-35.985-1.521a3.742,3.742,0,1,0-3.782,3.73,3.766,3.766,0,0,0,3.782-3.73m37.474,18a3.737,3.737,0,1,0-3.794,3.715,3.781,3.781,0,0,0,3.794-3.715" transform="translate(-24.553 -266.15)" fill="#37a76f"/>
          <path id="Path_332" data-name="Path 332" d="M287.966,374.51c-.3-1.2.362-2.218,1.319-3.247,4.1-4.414,8.135-8.892,12.195-13.344.719-.789,1.444-.974,2.134-.565.9.534.953,1.615.1,2.551q-3.873,4.264-7.758,8.517-2.24,2.457-4.48,4.915c-.224.247-.513.453-.518.853-.006.378,0,.7.518.628a2.184,2.184,0,0,1,.281,0,6.072,6.072,0,0,0,2.04-.069c.634-.248.434-1.141.679-1.727a6.738,6.738,0,1,1,8.015,9.043,6.656,6.656,0,0,1-7.7-3.343,1.39,1.39,0,0,0-1.554-.925c-1.088.072-2.185.021-3.277.017-1.518,0-1.992-.489-2-2.03,0-.344,0-.687,0-1.273m12.731,4.8a3.745,3.745,0,1,0-3.733-3.762,3.776,3.776,0,0,0,3.733,3.762" transform="translate(-221.965 -334.363)" fill="#37a76f"/>
          <path id="Path_333" data-name="Path 333" d="M302.748,454.691c-3.944-.058-2.847.5-5.259-2.631-.952-1.235-1.88-2.488-2.806-3.744a1.514,1.514,0,1,1,2.386-1.794c1.152,1.515,2.3,3.03,3.419,4.571a1.314,1.314,0,0,0,1.243.613c1.153-.041,2.309-.023,3.463-.009a1.551,1.551,0,0,1,1.728,1.454c.027.894-.669,1.519-1.74,1.537-.811.014-1.623,0-2.434,0" transform="translate(-226.711 -400.746)" fill="#37a76f"/>
          <path id="Path_334" data-name="Path 334" d="M222.238,269.547c0-.64-.027-1.14.006-1.636a1.476,1.476,0,0,1,1.512-1.454,1.494,1.494,0,0,1,1.467,1.41.59.59,0,0,1,0,.186c-.38,1.716.455,2.889,1.71,3.893a5.79,5.79,0,0,1,.909.936,1.417,1.417,0,0,1-.11,2.018,1.342,1.342,0,0,1-1.942.081q-1.681-1.545-3.229-3.232c-.607-.662-.244-1.556-.328-2.2" transform="translate(-172.724 -266.38)" fill="#37a76f"/>
          <path id="Path_335" data-name="Path 335" d="M325,335.935a1.777,1.777,0,0,1-.532,1.162c-1.215,1.211-2.416,2.437-3.644,3.634a1.5,1.5,0,1,1-2.116-2.107c1.221-1.249,2.461-2.479,3.7-3.706a1.449,1.449,0,0,1,1.72-.326,1.485,1.485,0,0,1,.868,1.343" transform="translate(-244.639 -317.345)" fill="#37a76f"/>
          <path id="Path_336" data-name="Path 336" d="M177.369,271.495c0,.652.026,1.306-.006,1.957a1.489,1.489,0,1,1-2.977-.029c-.031-1.3-.029-2.61,0-3.914a1.475,1.475,0,0,1,1.5-1.554,1.507,1.507,0,0,1,1.483,1.583c0,.062,0,.124,0,.186v1.771Z" transform="translate(-136.858 -267.503)" fill="#37a76f"/>
          <path id="Path_337" data-name="Path 337" d="M270.94,577.032a24.845,24.845,0,0,1,.7-6.2c.255-1.03.942-1.538,1.784-1.354a1.507,1.507,0,0,1,1.1,2.024,23.764,23.764,0,0,0-.239,9.294c.223,1.253-.267,2.008-1.241,2.1-.908.09-1.516-.419-1.694-1.482a23.782,23.782,0,0,1-.418-4.384" transform="translate(-209.254 -493.512)" fill="#37a76f"/>
          <path id="Path_338" data-name="Path 338" d="M174.4,411.2c0-1.872-.008-3.744,0-5.616.008-1.276.543-1.8,1.837-1.809q2.668-.014,5.335,0c1.117.005,1.786.555,1.811,1.456.026.932-.673,1.527-1.826,1.537-1.092.009-2.188.057-3.275-.017-.781-.053-.91.25-.9.945.034,3.089.008,6.178.019,9.266a1.587,1.587,0,0,1-1.029,1.7A1.49,1.49,0,0,1,174.4,417.1c-.022-1.965-.006-3.931-.007-5.9" transform="translate(-136.879 -369.317)" fill="#37a76f"/>
          <path id="Path_339" data-name="Path 339" d="M207.381,411.3c0,1.9.009,3.807,0,5.71-.008,1.226-.552,1.775-1.77,1.784q-2.761.02-5.523,0a1.5,1.5,0,1,1-.026-2.987c1.185-.019,2.373-.038,3.556.008.612.024.788-.163.782-.778-.03-3.151-.019-6.3-.01-9.454,0-1.065.535-1.711,1.405-1.765a1.518,1.518,0,0,1,1.583,1.681c.017,1.934.005,3.869.005,5.8" transform="translate(-154.874 -369.346)" fill="#37a76f"/>
        </g>
      </g>
    </g>
  </g>
</svg>
