<svg xmlns="http://www.w3.org/2000/svg" xmlns:xlink="http://www.w3.org/1999/xlink" width="64.262" height="73.417" viewBox="0 0 64.262 73.417">
  <defs>
    <clipPath id="clip-path">
      <rect id="Rectangle_113" data-name="Rectangle 113" width="64.262" height="73.417" fill="#37a76f" stroke="#fff" stroke-width="2"/>
    </clipPath>
  </defs>
  <g id="about-how-1" transform="translate(0)">
    <g id="Group_84" data-name="Group 84" transform="translate(0)" clip-path="url(#clip-path)">
      <path id="Path_311" data-name="Path 311" d="M15.486,73.417a15.688,15.688,0,0,0-3.727-1.57c-4.232-1.728-7.778-4.269-9.974-8.4A15.084,15.084,0,0,1,0,56.29q-.01-9.14,0-18.281a2.412,2.412,0,0,1,2.046-2.76q7.3-2.3,14.6-4.623a3.123,3.123,0,0,1,2.026-.006c1.38.459,2.77.889,4.16,1.319.237.073.477.208.744.012a23.7,23.7,0,0,1,5.739-3.04c-4.441-3.63-6.676-8.249-6.322-13.944a15.41,15.41,0,0,1,5.344-10.9,16.073,16.073,0,1,1,20.421,24.8,1.382,1.382,0,0,0,.661.34A23.515,23.515,0,0,1,64.237,51.1c.024,6.452-.021,12.9.025,19.356a2.815,2.815,0,0,1-1.741,2.959Zm13.7-39.475c1.474.47,2.791.886,4.106,1.31a2.374,2.374,0,0,1,2,2.716q0,9.176,0,18.352a14.332,14.332,0,0,1-.215,2.567,15.59,15.59,0,0,1-4.83,8.823c-.3.282-.574.575-.394.973.135.3.509.141.771.141,5.592.009,11.183,0,16.775.021.61,0,.8-.117.793-.77-.029-6.452-.017-12.9-.017-19.355,0-.239-.01-.479.009-.717a2.288,2.288,0,0,1,4.44-.591,3.322,3.322,0,0,1,.139,1.2c0,6.476.011,12.952-.017,19.427,0,.678.2.819.831.8,1.791-.041,3.584-.038,5.376,0,.565.012.71-.145.707-.708-.021-5.591-.013-11.183-.013-16.774,0-.765-.039-1.526-.114-2.289A18.976,18.976,0,0,0,45.291,32.679a33.565,33.565,0,0,0-9.768-.457,17.032,17.032,0,0,0-6.335,1.719m1.522,14.507c0-2.82-.019-5.64.016-8.459A.854.854,0,0,0,30,39c-3.919-1.211-7.829-2.454-11.736-3.7a1.823,1.823,0,0,0-1.175-.008Q11.125,37.191,5.15,39.06a.689.689,0,0,0-.569.806c.013,5.5-.009,10.992.015,16.488a10.388,10.388,0,0,0,2.167,6.4C9.108,65.822,12.377,67.412,16,68.4a4.593,4.593,0,0,0,2.446.252,20.589,20.589,0,0,0,7.807-3.586,10.909,10.909,0,0,0,4.457-8.877c.023-2.58,0-5.161,0-7.742m8.34-43.862A11.47,11.47,0,1,0,50.475,16,11.482,11.482,0,0,0,39.051,4.586" transform="translate(0 0)" fill="#37a76f" stroke="#fff" stroke-width="2"/>
      <path id="Path_312" data-name="Path 312" d="M68.958,231.558a2.328,2.328,0,0,1-.691,1.788c-2.968,2.975-5.93,5.956-8.919,8.911a2.225,2.225,0,0,1-3.319-.038q-2.323-2.286-4.609-4.61a2.288,2.288,0,1,1,3.234-3.236c.862.825,1.718,1.66,2.528,2.537.392.425.607.462,1.038.02q3.329-3.406,6.729-6.745a2.29,2.29,0,0,1,3.93.924,3.538,3.538,0,0,1,.079.449" transform="translate(-40.993 -185.471)" fill="#37a76f" stroke="#fff" stroke-width="2"/>
    </g>
  </g>
</svg>
