<svg xmlns="http://www.w3.org/2000/svg" xmlns:xlink="http://www.w3.org/1999/xlink" width="73.932" height="73.823" viewBox="0 0 73.932 73.823">
  <defs>
    <clipPath id="clip-path">
      <rect id="Rectangle_114" data-name="Rectangle 114" width="73.932" height="73.823" fill="#37a76f"/>
    </clipPath>
  </defs>
  <g id="about-how-2" transform="translate(0)">
    <g id="Group_86" data-name="Group 86" transform="translate(0)" clip-path="url(#clip-path)">
      <path id="Path_313" data-name="Path 313" d="M73.932,19.179a5.67,5.67,0,0,1-1.5,2.786.5.5,0,0,0-.1.543c.907,3.869-.045,7.441-1.738,10.9a18.489,18.489,0,0,1-1.572,2.722A1.087,1.087,0,0,0,69,37.595a21.454,21.454,0,0,1,3.492,8.376,12.18,12.18,0,0,1-8.155,13.811,29.482,29.482,0,0,1-11.872,1.7.928.928,0,0,0-1.045.629,24.752,24.752,0,0,1-6.79,8.88c-4.878,3.823-10.558,3.78-15.386-.123a24.9,24.9,0,0,1-6.582-8.682,1.051,1.051,0,0,0-1.209-.709A26.434,26.434,0,0,1,8.742,59.295a.782.782,0,0,0-.914.1,4.888,4.888,0,0,1-6.375-7.381c.184-.193.355-.331.272-.678-.908-3.783,0-7.3,1.628-10.7a20.309,20.309,0,0,1,1.79-3.1.86.86,0,0,0-.014-1.148A22.127,22.127,0,0,1,1.5,27.594C.354,20.281,5.25,15.622,9.76,14.038a30.283,30.283,0,0,1,11.877-1.7.811.811,0,0,0,.945-.548A21.473,21.473,0,0,1,24.4,8.539a.633.633,0,0,0,0-.831,4.882,4.882,0,0,1,6.988-6.667.656.656,0,0,0,.776.112c4.921-2.236,9.273-1.085,13.207,2.3A24.878,24.878,0,0,1,51.358,11.6a1.133,1.133,0,0,0,1.256.771A27.252,27.252,0,0,1,65.4,14.57a.635.635,0,0,0,.721-.051,4.863,4.863,0,0,1,7.683,2.86c.033.114.086.223.129.334ZM19.823,36.925a64.832,64.832,0,0,0,.766,10.212,1.639,1.639,0,0,0,.8,1.276A73.388,73.388,0,0,0,36.465,55.8a1.367,1.367,0,0,0,.981.041,70.563,70.563,0,0,0,15.449-7.608,1.088,1.088,0,0,0,.516-.82,66.142,66.142,0,0,0,0-21,1.148,1.148,0,0,0-.573-.861,71.76,71.76,0,0,0-15.328-7.529,1.376,1.376,0,0,0-.981,0,71.515,71.515,0,0,0-15.138,7.419,1.654,1.654,0,0,0-.8,1.276,65.066,65.066,0,0,0-.766,10.211M3.79,25.608a17.628,17.628,0,0,0,2.9,8.712c.3.5.454.448.792.041a50.814,50.814,0,0,1,10.473-9.534,1.5,1.5,0,0,0,.68-1.045,47.231,47.231,0,0,1,2.386-8.357c.192-.5.16-.651-.429-.67a26.487,26.487,0,0,0-10.262,1.683,9.8,9.8,0,0,0-6.541,9.17M52.838,59.046a24.452,24.452,0,0,0,11.87-2.132,9.125,9.125,0,0,0,5.4-7.022c.628-4.068-1.019-7.523-3.072-10.877a1.646,1.646,0,0,0-.224.175,52.741,52.741,0,0,1-10.944,9.977,1,1,0,0,0-.423.722,45.387,45.387,0,0,1-1.306,5.246c-.412,1.294-.858,2.577-1.3,3.912m-3.74,2.23c-.285-.059-.5-.12-.711-.145a39.012,39.012,0,0,1-8.222-1.679,9.113,9.113,0,0,0-6.27,0,40.281,40.281,0,0,1-8.3,1.678c-.257.031-.8-.1-.466.534a21.753,21.753,0,0,0,5.947,7.507,9.075,9.075,0,0,0,8.448,1.8,12.735,12.735,0,0,0,5.826-4.014A25.261,25.261,0,0,0,49.1,61.276m17.88-26.541a21.716,21.716,0,0,0,2.178-4.178,13.208,13.208,0,0,0,.976-6.368c-.069-.6-.142-.907-.937-.841a4.821,4.821,0,0,1-4.963-5.884c.127-.538.018-.747-.493-.945a25.821,25.821,0,0,0-10.31-1.759c-.626.02-.58.216-.4.671a48.6,48.6,0,0,1,2.391,8.35,1.406,1.406,0,0,0,.651.98,52.1,52.1,0,0,1,7.579,6.317c1.152,1.159,2.23,2.385,3.33,3.657M7.084,39.108A19.878,19.878,0,0,0,4.147,45.69a11.671,11.671,0,0,0-.178,4.287c.062.412.157.559.637.512a4.85,4.85,0,0,1,5.207,5.925c-.129.561.038.712.493.89A25.7,25.7,0,0,0,20.541,59.07c.605-.018.688-.144.472-.7a46.133,46.133,0,0,1-2.366-8.281,1.489,1.489,0,0,0-.686-1.042,50.927,50.927,0,0,1-6.855-5.59,59.014,59.014,0,0,1-4.022-4.348M37.514,2.473a10.122,10.122,0,0,0-3.932.705c-.35.149-.5.315-.391.708a4.865,4.865,0,0,1-6.083,5.757.522.522,0,0,0-.7.287c-.372.658-.734,1.324-1.152,1.952-.384.576-.217.74.415.813a56.716,56.716,0,0,1,10.9,2.423,1.46,1.46,0,0,0,.92,0c1.425-.421,2.851-.845,4.291-1.207a52.551,52.551,0,0,1,6.687-1.219c.226-.026.772.108.457-.491a21.32,21.32,0,0,0-6.343-7.83,9.447,9.447,0,0,0-5.073-1.9M17.92,27.962a3.726,3.726,0,0,0-.386.212A47.923,47.923,0,0,0,8.819,36.6c-.277.344-.16.525.059.794a48.447,48.447,0,0,0,5.409,5.654,35.836,35.836,0,0,0,3.636,2.9,70.554,70.554,0,0,1,0-17.979m38.208-.073a72.665,72.665,0,0,1,.02,17.923,1.466,1.466,0,0,0,.256-.086,47.4,47.4,0,0,0,8.835-8.51c.286-.354.124-.539-.089-.8A48.268,48.268,0,0,0,59.9,30.907a35.109,35.109,0,0,0-3.773-3.018M52.555,51.364a76.38,76.38,0,0,1-11.617,5.8,56.6,56.6,0,0,0,8.828,1.711c.391.047.491-.152.613-.449A46.537,46.537,0,0,0,52.047,53.6a11.057,11.057,0,0,0,.508-2.238M21.426,22.513A83.188,83.188,0,0,1,32.87,16.678a47.638,47.638,0,0,0-8.732-1.72c-.256-.029-.34.117-.418.308a45.427,45.427,0,0,0-2.295,7.247M32.884,57.141a83.775,83.775,0,0,1-11.459-5.8,47.77,47.77,0,0,0,2.267,7.166.451.451,0,0,0,.557.314,44.922,44.922,0,0,0,8.635-1.679M52.62,22.495a47.159,47.159,0,0,0-2.283-7.212c-.145-.36-.39-.276-.657-.253a45.745,45.745,0,0,0-5.487.838,19.9,19.9,0,0,0-3.2.833A75.407,75.407,0,0,1,52.62,22.495m18.836-4.053a2.444,2.444,0,1,0-2.444,2.484,2.457,2.457,0,0,0,2.444-2.484M5.039,52.9a2.466,2.466,0,1,0,.031,4.932A2.466,2.466,0,0,0,5.039,52.9m20.93-47.99A2.444,2.444,0,1,0,28.442,2.47a2.435,2.435,0,0,0-2.473,2.443" transform="translate(0 0)" fill="#37a76f"/>
      <path id="Path_314" data-name="Path 314" d="M133.538,154.1q-4.725,0-9.451,0c-2.653,0-4.116-1.476-4.119-4.129,0-1.465.026-2.931-.009-4.4-.023-.983.8-1.789.775-2.575-.021-.77-.785-1.555-.772-2.508.022-1.611-.008-3.224.01-4.835a3.638,3.638,0,0,1,3.438-3.685c.17-.015.341-.021.512-.021q9.561,0,19.122,0a3.666,3.666,0,0,1,3.8,2.607,3.937,3.937,0,0,1,.169,1.079c.018,1.636,0,3.272.012,4.908.006.947-.8,1.741-.778,2.5.018.742.774,1.516.774,2.434,0,1.636.04,3.273-.009,4.908a3.642,3.642,0,0,1-3.878,3.7c-3.2.023-6.4.006-9.6.006m-.074-12.3c3.173,0,6.345,0,9.518,0,1.158,0,1.589-.441,1.594-1.6.007-1.44.012-2.88,0-4.32-.01-.989-.462-1.472-1.421-1.473q-9.665-.014-19.329,0c-.939,0-1.377.463-1.387,1.412-.014,1.415-.006,2.831,0,4.246,0,1.382.352,1.735,1.733,1.736q4.649,0,9.3,0m.076,9.843q4.722,0,9.445,0c1.152,0,1.586-.441,1.592-1.6q.011-2.087,0-4.173c-.005-1.2-.429-1.611-1.646-1.622-.415,0-.83,0-1.245,0q-8.749,0-17.5,0c-1.392,0-1.752.353-1.755,1.714q0,2.013,0,4.027c0,1.272.389,1.658,1.662,1.659q4.723,0,9.445,0" transform="translate(-96.469 -106.111)" fill="#37a76f"/>
      <path id="Path_315" data-name="Path 315" d="M199.152,159.527c-.754,0-1.509.009-2.263,0-.891-.014-1.415-.472-1.425-1.219s.509-1.239,1.391-1.247q2.3-.019,4.6,0a1.236,1.236,0,1,1,.034,2.462c-.778.022-1.557,0-2.336.005" transform="translate(-157.189 -126.296)" fill="#37a76f"/>
      <path id="Path_316" data-name="Path 316" d="M147,157.086c1.242-.007,1.855.411,1.838,1.248-.016.819-.607,1.217-1.807,1.217a6.066,6.066,0,0,1-.729-.013,1.227,1.227,0,0,1,.042-2.449c.217-.02.437,0,.656,0" transform="translate(-116.736 -126.321)" fill="#37a76f"/>
      <path id="Path_317" data-name="Path 317" d="M199.1,209.76c-.779,0-1.558.018-2.336,0a1.231,1.231,0,1,1,.013-2.458q2.372-.033,4.745,0a1.241,1.241,0,0,1,1.308,1.2,1.254,1.254,0,0,1-1.321,1.259c-.8.021-1.606,0-2.409,0" transform="translate(-157.195 -166.692)" fill="#37a76f"/>
      <path id="Path_318" data-name="Path 318" d="M146.986,209.8c-1.256,0-1.85-.4-1.843-1.246s.594-1.228,1.864-1.227c1.2,0,1.793.394,1.812,1.211.019.84-.593,1.261-1.832,1.262" transform="translate(-116.721 -166.727)" fill="#37a76f"/>
    </g>
  </g>
</svg>
