<svg xmlns="http://www.w3.org/2000/svg" width="190.84" height="30.004" viewBox="0 0 190.84 30.004">
  <path id="spaceai-logo-black" d="M1.872,2.912H12.064c3.744,0,5.408-1.794,5.408-4.966V-4.42c0-3.172-1.664-5.226-5.408-5.226H7.852c-2.184,0-3.2-1.014-3.2-2.808v-.572c0-1.742.884-2.808,3.2-2.808h8.71v-2.99H6.6c-3.718,0-5.382,1.794-5.382,4.966v2.236c0,3.172,1.664,4.966,5.382,4.966H10.79c2.158.026,3.25,1.092,3.25,2.808v.988c0,1.742-.936,2.782-3.224,2.782H1.872ZM23.738,9.906V2.912h6.448c3.432,0,5.018-1.768,5.018-4.966V-7.67c0-3.2-1.586-4.966-5.018-4.966H20.332V9.906ZM28.964-.052H23.738v-9.62h5.226c1.95,0,2.834.884,2.834,2.782v4.056C31.8-.91,30.914-.052,28.964-.052ZM37.8-.364c0,2.054,1.222,3.276,3.64,3.276H52.6V-7.748c0-3.2-.728-4.888-4.212-4.888h-9.88v2.7h9c1.144,0,1.69.572,1.69,1.794V-6.63H41.444c-2.418,0-3.64,1.248-3.64,3.3ZM41.21-2.21c0-1.17.39-1.716,1.716-1.716h6.266V.208H42.926c-1.482,0-1.69-.26-1.716-1.482ZM58.864-6.89c0-1.9.858-2.782,2.808-2.782H69.42v-2.964H60.45c-3.432,0-4.992,1.768-4.992,4.966v5.616c0,3.2,1.56,4.992,4.992,4.992h9.23V-.052H61.672c-1.95,0-2.808-.858-2.808-2.782ZM72.41-.312c0,1.976,1.144,3.224,3.718,3.224H87.152V.442H77.064c-.91-.13-1.248-.728-1.248-1.742V-3.224H83.9c2.5,0,3.77-1.144,3.77-3.354v-1.69c-.13-2.964-1.014-4.368-4.29-4.368h-6.76c-3.406,0-4.212,1.612-4.212,4.914ZM82.6-9.932c1.222,0,1.664.442,1.664,1.612v.78c0,1.17-.442,1.612-1.664,1.612H75.816V-8.32c0-1.274.6-1.612,1.976-1.612Zm19.682-7.306H99.112l.858-2.86H96.8L89.7,2.912h3.51L94.8-2.522h8.658l1.716,5.434h3.458Zm-4.03,2.99h1.508l2.756,8.736H95.68ZM114.92,2.912V-18.824h-3.536V2.912ZM140.348.156H129.272V-3.718c0-1.586.676-2.548,2.886-2.548h3.016c3.744,0,5.408-1.82,5.408-4.992v-2.99c0-3.484-1.534-4.576-5.98-4.576h-7.67v2.756h7.176c2.184,0,3.224,1.014,3.224,2.808v1.43c0,1.716-.936,2.808-3.224,2.808h-2.964c-3.718,0-5.122,1.534-5.122,4.706V2.912h14.326ZM150.618,3.2c5.382,0,7.436-2.34,7.436-7.436v-7.384c0-5.07-2.08-7.462-7.436-7.462s-7.436,2.392-7.436,7.462v7.384C143.182.858,145.236,3.2,150.618,3.2Zm0-19.318c3.328,0,4.16,1.742,4.16,5.408v5.538c0,3.822-.858,5.408-4.16,5.408-3.328,0-4.186-1.586-4.186-5.408v-5.538C146.432-14.378,147.264-16.12,150.618-16.12ZM174.85.156H163.774V-3.718c0-1.586.676-2.548,2.886-2.548h3.016c3.744,0,5.408-1.82,5.408-4.992v-2.99c0-3.484-1.534-4.576-5.98-4.576h-7.67v2.756h7.176c2.184,0,3.224,1.014,3.224,2.808v1.43c0,1.716-.936,2.808-3.224,2.808h-2.964c-3.718,0-5.122,1.534-5.122,4.706V2.912H174.85Zm2.7,2.756h9.386c3.328,0,5.122-1.508,5.122-4.706V-4.5a3.374,3.374,0,0,0-3.3-3.588,3.617,3.617,0,0,0,2.782-3.692v-1.846c0-3.744-1.456-5.2-5.07-5.2h-8.658v2.756h7.592c1.95,0,2.886.78,2.886,2.756v.936c0,1.976-1.092,2.938-3.146,2.938h-5.772v2.756h6.37c1.924,0,3.068.806,3.068,2.522v1.482c0,1.976-.988,2.834-3.068,2.834h-8.19Z" transform="translate(-1.222 20.098)"/>
</svg>
